<svg width="50" height="50" viewBox="0 0 50 50" fill="none" xmlns="http://www.w3.org/2000/svg">
<path d="M44.9275 25C44.9275 36.0057 36.0057 44.9276 25 44.9276C13.9943 44.9276 5.07245 36.0057 5.07245 25C5.07245 13.9944 13.9943 5.07251 25 5.07251C36.0057 5.07251 44.9275 13.9944 44.9275 25ZM6.78116 25C6.78116 35.062 14.938 43.2189 25 43.2189C35.062 43.2189 43.2188 35.062 43.2188 25C43.2188 14.9381 35.062 6.78122 25 6.78122C14.938 6.78122 6.78116 14.9381 6.78116 25Z" fill="#D9D9D9"/>
<path d="M50 25C50 38.8071 38.8071 50 25 50C11.1929 50 0 38.8071 0 25C0 11.1929 11.1929 0 25 0C38.8071 0 50 11.1929 50 25ZM2.14366 25C2.14366 37.6232 12.3768 47.8563 25 47.8563C37.6232 47.8563 47.8563 37.6232 47.8563 25C47.8563 12.3768 37.6232 2.14366 25 2.14366C12.3768 2.14366 2.14366 12.3768 2.14366 25Z" fill="#D9D9D9"/>
<rect x="6.88403" y="26.0869" width="1.81159" height="36.2319" rx="0.905797" transform="rotate(-90 6.88403 26.0869)" fill="#D9D9D9"/>
<rect x="6.88403" y="26.0869" width="1.81159" height="36.2319" rx="0.905797" transform="rotate(-90 6.88403 26.0869)" fill="#3C3C3C"/>
<rect x="11.5496" y="13.0117" width="1.81159" height="36.2319" rx="0.905797" transform="rotate(-45 11.5496 13.0117)" fill="#3C3C3C"/>
<rect x="12.8305" y="38.6316" width="1.81159" height="36.2319" rx="0.905797" transform="rotate(-135 12.8305 38.6316)" fill="#3C3C3C"/>
<rect x="23.913" y="6.88403" width="1.81159" height="36.2319" rx="0.905797" fill="#3C3C3C"/>
<circle cx="24.8188" cy="25.1812" r="3.07971" fill="#D9D9D9"/>
</svg>
